<svg width="48" height="48" viewBox="0 0 48 48" fill="none" xmlns="http://www.w3.org/2000/svg">
<path d="M23.1049 14.9081C20.957 12.7602 20.957 9.27783 23.1049 7.12995C25.2528 4.98206 28.7352 4.98206 30.8831 7.12995L43.611 19.8579C45.7589 22.0058 45.7589 25.4882 43.611 27.636C41.4631 29.7839 37.9807 29.7839 35.8328 27.636L23.1049 14.9081Z" fill="#E5E5E5"/>
<path d="M30.883 40.364C28.7351 42.5119 25.2527 42.5119 23.1048 40.364C20.9569 38.2161 20.9569 34.7337 23.1048 32.5858L35.8327 19.8579C37.9806 17.71 41.463 17.71 43.6109 19.8579C45.7588 22.0058 45.7588 25.4882 43.6109 27.6361L30.883 40.364Z" fill="#E5E5E5"/>
<path d="M29 18.2531C32.0376 18.2531 34.5 20.7155 34.5 23.7531C34.5 26.7906 32.0376 29.2531 29 29.2531H11C7.96244 29.2531 5.5 26.7906 5.5 23.7531C5.5 20.7155 7.96244 18.2531 11 18.2531H29Z" fill="#E5E5E5"/>
</svg>
