<svg width="25" height="29" viewBox="0 0 25 29" fill="none" xmlns="http://www.w3.org/2000/svg">
<path fill-rule="evenodd" clip-rule="evenodd" d="M5.40029 0C4.51664 0 3.80029 0.716345 3.80029 1.6V23.55C3.80029 24.4336 4.51664 25.15 5.40029 25.15H22.4503C23.3339 25.15 24.0503 24.4336 24.0503 23.55V1.6C24.0503 0.716345 23.3339 0 22.4503 0H5.40029ZM8.40029 4.55C7.87564 4.55 7.45029 4.97533 7.45029 5.5V19.65C7.45029 20.1746 7.87564 20.6 8.40029 20.6H19.4003C19.9249 20.6 20.3503 20.1746 20.3503 19.65V5.5C20.3503 4.97533 19.9249 4.55 19.4003 4.55H8.40029Z" fill="#BBBBBB"/>
<path d="M1.2 4.35H1.05C0.470101 4.35 0 4.8201 0 5.4V27.95C0 28.5299 0.470101 29 1.05 29H1.2C1.7799 29 2.25 28.5299 2.25 27.95V5.4C2.25 4.8201 1.7799 4.35 1.2 4.35Z" fill="#BBBBBB"/>
<path d="M0 27.9L0 27.95C0 28.5299 0.470101 29 1.05 29H18.2C18.7799 29 19.25 28.5299 19.25 27.95V27.9C19.25 27.3201 18.7799 26.85 18.2 26.85H1.05C0.470101 26.85 0 27.3201 0 27.9Z" fill="#BBBBBB"/>
</svg>
