<svg width="22" height="25" viewBox="0 0 22 25" fill="none" xmlns="http://www.w3.org/2000/svg">
<g clip-path="url(#clip0_92_4)">
<mask id="mask0_92_4" style="mask-type:luminance" maskUnits="userSpaceOnUse" x="0" y="0" width="22" height="25">
<path d="M22 0H0V25H22V0Z" fill="white"/>
</mask>
<g mask="url(#mask0_92_4)">
<path d="M12.1098 0.459164C11.496 -0.151188 10.4991 -0.151188 9.88527 0.459164L3.59955 6.70917C2.98571 7.31952 2.98571 8.31073 3.59955 8.92108C4.21339 9.53143 5.21027 9.53143 5.82411 8.92108L9.42857 5.3371V15.6252C9.42857 16.4894 10.1308 17.1877 11 17.1877C11.8692 17.1877 12.5714 16.4894 12.5714 15.6252V5.3371L16.1759 8.92108C16.7897 9.53143 17.7866 9.53143 18.4004 8.92108C19.0143 8.31073 19.0143 7.31952 18.4004 6.70917L12.1147 0.459164H12.1098ZM3.14286 17.1877C3.14286 16.3234 2.44062 15.6252 1.57143 15.6252C0.702232 15.6252 0 16.3234 0 17.1877V20.3127C0 22.9006 2.11161 25.0002 4.71429 25.0002H17.2857C19.8884 25.0002 22 22.9006 22 20.3127V17.1877C22 16.3234 21.2978 15.6252 20.4286 15.6252C19.5594 15.6252 18.8571 16.3234 18.8571 17.1877V20.3127C18.8571 21.1769 18.1549 21.8752 17.2857 21.8752H4.71429C3.84509 21.8752 3.14286 21.1769 3.14286 20.3127V17.1877Z" fill="white"/>
</g>
</g>
<defs>
<clipPath id="clip0_92_4">
<rect width="22" height="25" fill="white"/>
</clipPath>
</defs>
</svg>
