<svg width="629" height="682" viewBox="0 0 629 682" fill="none" xmlns="http://www.w3.org/2000/svg">
<mask id="mask0_47_2" style="mask-type:alpha" maskUnits="userSpaceOnUse" x="0" y="0" width="629" height="682">
<rect width="629" height="681.417" fill="#D9D9D9"/>
</mask>
<g mask="url(#mask0_47_2)">
</g>
<g clip-path="url(#clip0_47_2)">
<path d="M239.962 153.066L234.627 163.802H163.49C150.374 163.802 139.778 174.538 139.778 187.826C139.778 201.115 150.374 211.851 163.49 211.851H448.038C461.154 211.851 471.75 201.115 471.75 187.826C471.75 174.538 461.154 163.802 448.038 163.802H376.901L371.566 153.066C367.564 144.883 359.339 139.778 350.373 139.778H261.155C252.189 139.778 243.964 144.883 239.962 153.066ZM448.038 235.875H163.49L179.2 490.383C180.385 509.377 195.946 524.167 214.694 524.167H396.834C415.582 524.167 431.143 509.377 432.328 490.383L448.038 235.875Z" fill="#7D4747"/>
</g>
<defs>
<clipPath id="clip0_47_2">
<rect width="331.972" height="384.389" fill="white" transform="translate(139.778 139.778)"/>
</clipPath>
</defs>
</svg>
