<svg width="131" height="167" viewBox="0 0 131 167" fill="none" xmlns="http://www.w3.org/2000/svg">
<path d="M0 82.6733C0 79.2488 2.80178 76.4728 6.25796 76.4728H124.742C128.198 76.4728 131 79.2488 131 82.6733V160.8C131 164.224 128.198 167 124.742 167H6.25796C2.80178 167 0 164.224 0 160.8V82.6733Z" fill="#233D2B"/>
<path fill-rule="evenodd" clip-rule="evenodd" d="M120.987 54.8744C120.987 85.1807 96.1915 109.749 65.6043 109.749C35.0171 109.749 10.2213 85.1807 10.2213 54.8744C10.2213 24.5681 35.0171 0 65.6043 0C96.1915 0 120.987 24.5681 120.987 54.8744ZM89.2803 50.6374V76.4728H41.7197V50.6374C41.7197 37.6245 52.3665 27.0755 65.5 27.0755C78.6335 27.0755 89.2803 37.6245 89.2803 50.6374Z" fill="#233D2B"/>
<path d="M106.803 54.151H120.987V76.4728H106.803V54.151Z" fill="#233D2B"/>
<path d="M10.2213 54.771H24.406V77.0928H10.2213V54.771Z" fill="#233D2B"/>
</svg>
