<svg width="37" height="25" viewBox="0 0 37 25" fill="none" xmlns="http://www.w3.org/2000/svg">
<path d="M18.4968 0C13.307 0 9.15124 2.05357 6.12599 4.49777C3.12 6.91964 1.10958 9.82143 0.158971 11.8136C-0.0529902 12.2545 -0.0529902 12.7455 0.158971 13.1864C1.10958 15.1786 3.12 18.0804 6.12599 20.5022C9.15124 22.9464 13.307 25 18.4968 25C23.6866 25 27.8423 22.9464 30.8676 20.5022C33.8736 18.0748 35.884 15.1786 36.841 13.1864C37.053 12.7455 37.053 12.2545 36.841 11.8136C35.884 9.82143 33.8736 6.91964 30.8676 4.49777C27.8423 2.05357 23.6866 0 18.4968 0ZM9.24759 12.5C9.24759 10.3688 10.2221 8.32488 11.9566 6.81789C13.6912 5.3109 16.0437 4.46429 18.4968 4.46429C20.9498 4.46429 23.3024 5.3109 25.037 6.81789C26.7715 8.32488 27.746 10.3688 27.746 12.5C27.746 14.6312 26.7715 16.6751 25.037 18.1821C23.3024 19.6891 20.9498 20.5357 18.4968 20.5357C16.0437 20.5357 13.6912 19.6891 11.9566 18.1821C10.2221 16.6751 9.24759 14.6312 9.24759 12.5ZM15.5772 7.47245C14.3131 8.20775 14.3897 8.08823 13.5192 8.82353C12.9201 9.50413 12.8192 9.57648 12.3887 11.0193C12.1831 12.0813 12.3132 13.2354 12.3887 13.4642C12.5269 13.8827 12.4981 13.7374 12.9667 14.7059C13.6782 16.1765 16.8011 18.4375 20.0897 17.673C23.3783 16.9085 25.3309 13.9676 24.451 11.1105C23.738 8.79464 21.3807 7.23772 18.7601 7.14286C18.3876 7.1317 18.213 7.14286 17.504 7.14286C16.7951 7.14286 17 7 15.5772 7.47245Z" fill="#BBBBBB"/>
</svg>
