<svg width="36" height="36" viewBox="0 0 36 36" fill="none" xmlns="http://www.w3.org/2000/svg">
<path fill-rule="evenodd" clip-rule="evenodd" d="M36 18C36 27.9411 27.9411 36 18 36C8.05887 36 0 27.9411 0 18C0 8.05887 8.05887 0 18 0C27.9411 0 36 8.05887 36 18ZM7.94619 19.8387C6.87131 18.7638 6.87131 17.0211 7.94619 15.9462C9.02107 14.8714 10.7638 14.8714 11.8387 15.9462L15.4999 19.6075L24.1612 10.9462C25.2361 9.87136 26.9788 9.87136 28.0537 10.9462C29.1286 12.0211 29.1286 13.7638 28.0537 14.8387L17.8504 25.042C17.7476 25.1999 17.6268 25.3497 17.4882 25.4883C16.4133 26.5631 14.6706 26.5631 13.5957 25.4883L7.94619 19.8387Z" fill="#88E8B4"/>
</svg>
