<svg width="36" height="36" viewBox="0 0 36 36" fill="none" xmlns="http://www.w3.org/2000/svg">
<path fill-rule="evenodd" clip-rule="evenodd" d="M36 18C36 27.9411 27.9411 36 18 36C8.05887 36 0 27.9411 0 18C0 8.05887 8.05887 0 18 0C27.9411 0 36 8.05887 36 18ZM10.9463 14.8387C9.87143 13.7638 9.87143 12.0211 10.9463 10.9462C12.0212 9.87136 13.7639 9.87136 14.8388 10.9462L18 14.1075L21.1613 10.9462C22.2361 9.87136 23.9789 9.87136 25.0537 10.9462C26.1286 12.0211 26.1286 13.7638 25.0537 14.8387L21.8925 17.9999L25.0538 21.1613C26.1287 22.2362 26.1287 23.9789 25.0538 25.0538C23.9789 26.1286 22.2362 26.1286 21.1613 25.0538L18 21.8924L14.8387 25.0538C13.7638 26.1286 12.0211 26.1286 10.9462 25.0538C9.87134 23.9789 9.87134 22.2361 10.9462 21.1613L14.1075 17.9999L10.9463 14.8387Z" fill="#E88888"/>
</svg>
