<svg width="25" height="26" viewBox="0 0 25 26" fill="none" xmlns="http://www.w3.org/2000/svg">
<path fill-rule="evenodd" clip-rule="evenodd" d="M3.09123 18.1059C7.21287 22.2479 13.8954 22.2479 18.017 18.1059C22.1386 13.964 22.1386 7.24848 18.017 3.10649C13.8954 -1.0355 7.21287 -1.0355 3.09123 3.10649C-1.03041 7.24848 -1.03041 13.964 3.09123 18.1059ZM5.59501 15.6223C8.33385 18.3746 12.7744 18.3746 15.5132 15.6223C18.2521 12.8699 18.2521 8.40746 15.5132 5.6551C12.7744 2.90274 8.33385 2.90274 5.59501 5.6551C2.85617 8.40746 2.85617 12.8699 5.59501 15.6223Z" fill="#ADADAD"/>
<path d="M15.2871 16.2391C16.3487 15.1723 18.07 15.1723 19.1316 16.2391L24.2038 21.3363C25.2654 22.4032 25.2654 24.133 24.2038 25.1998C23.1421 26.2667 21.4209 26.2667 20.3593 25.1998L15.2871 20.1026C14.2254 19.0358 14.2254 17.306 15.2871 16.2391Z" fill="#ADADAD"/>
</svg>
