<svg width="604" height="567" viewBox="0 0 604 567" fill="none" xmlns="http://www.w3.org/2000/svg">
<path d="M260.37 47.2869L218.547 62.9016C215.219 64.1197 213 67.3312 213 70.875C213 74.4188 215.219 77.6303 218.547 78.8484L260.37 94.4631L276.013 136.213C277.233 139.535 280.45 141.75 284 141.75C287.55 141.75 290.767 139.535 291.988 136.213L307.63 94.4631L349.453 78.8484C352.781 77.6303 355 74.4188 355 70.875C355 67.3312 352.781 64.1197 349.453 62.9016L307.63 47.2869L291.988 5.53711C290.767 2.21484 287.55 0 284 0C280.45 0 277.233 2.21484 276.013 5.53711L260.37 47.2869ZM51.1422 437.875C30.3969 458.583 30.3969 492.249 51.1422 513.069L89.5266 551.385C110.272 572.094 143.997 572.094 164.853 551.385L587.858 129.015C608.603 108.306 608.603 74.6402 587.858 53.8207L549.473 15.6146C528.728 -5.09414 495.003 -5.09414 474.147 15.6146L51.1422 437.875ZM537.603 91.473L421.119 207.752L395.27 181.949L511.755 65.6701L537.603 91.473ZM8.32031 129.79C3.32812 131.672 0 136.434 0 141.75C0 147.066 3.32812 151.828 8.32031 153.71L71 177.188L94.5187 239.757C96.4047 244.74 101.175 248.062 106.5 248.062C111.825 248.062 116.595 244.74 118.481 239.757L142 177.188L204.68 153.71C209.672 151.828 213 147.066 213 141.75C213 136.434 209.672 131.672 204.68 129.79L142 106.312L118.481 43.7432C116.595 38.7598 111.825 35.4375 106.5 35.4375C101.175 35.4375 96.4047 38.7598 94.5187 43.7432L71 106.312L8.32031 129.79ZM398.82 413.29C393.828 415.172 390.5 419.934 390.5 425.25C390.5 430.566 393.828 435.328 398.82 437.21L461.5 460.688L485.019 523.257C486.905 528.24 491.675 531.562 497 531.562C502.325 531.562 507.095 528.24 508.981 523.257L532.5 460.688L595.18 437.21C600.172 435.328 603.5 430.566 603.5 425.25C603.5 419.934 600.172 415.172 595.18 413.29L532.5 389.812L508.981 327.243C507.095 322.26 502.325 318.938 497 318.938C491.675 318.938 486.905 322.26 485.019 327.243L461.5 389.812L398.82 413.29Z" fill="#D9D9D9"/>
</svg>
