<svg width="437" height="56" viewBox="0 0 437 56" fill="none" xmlns="http://www.w3.org/2000/svg">
<path d="M9.50624 27.8092L4.33981 33.9086V45.4872H0V9.40756H4.33981V28.2227H4.4948L9.24792 22.2267L19.8908 9.40756H25.1089L12.4511 24.6044L25.4705 45.4872H20.4074L9.50624 27.8092ZM42.5513 46.1075C40.6225 46.1075 38.8831 45.7801 37.3332 45.1254C35.8177 44.4707 34.5088 43.5402 33.4067 42.3341C32.3389 41.0935 31.5123 39.629 30.9268 37.9405C30.3412 36.2174 30.0485 34.3049 30.0485 32.2029C30.0485 30.0663 30.3412 28.1366 30.9268 26.4136C31.5468 24.6905 32.3906 23.2261 33.4584 22.0199C34.5261 20.7794 35.8004 19.8317 37.2815 19.177C38.797 18.5223 40.4675 18.1949 42.293 18.1949C44.084 18.1949 45.7028 18.5223 47.1494 19.177C48.6304 19.8317 49.8876 20.7449 50.9209 21.9165C51.9542 23.0537 52.7463 24.4149 53.2975 26.0001C53.8485 27.5852 54.1241 29.3255 54.1241 31.2208V33.185H34.3883V34.4255C34.3883 35.5971 34.5777 36.6826 34.9566 37.682C35.3354 38.6814 35.8693 39.5428 36.5582 40.2665C37.2815 40.9902 38.1426 41.5588 39.1414 41.9723C40.1747 42.3514 41.3114 42.5409 42.5513 42.5409C44.3423 42.5409 45.8922 42.1273 47.2011 41.3003C48.5099 40.4733 49.5087 39.3361 50.1976 37.8888L53.2458 39.9564C52.4536 41.7483 51.1276 43.2301 49.2677 44.4017C47.4422 45.5389 45.2033 46.1075 42.5513 46.1075ZM42.293 21.6064C41.1564 21.6064 40.1058 21.8132 39.1414 22.2267C38.177 22.6402 37.3332 23.2088 36.6099 23.9325C35.921 24.6561 35.3699 25.5176 34.9566 26.517C34.5777 27.4818 34.3883 28.5501 34.3883 29.7217V30.0836H49.681V29.515C49.681 28.3434 49.4915 27.275 49.1127 26.3102C48.7682 25.3454 48.2688 24.5183 47.6144 23.8291C46.9944 23.1054 46.2195 22.5541 45.2895 22.175C44.394 21.7959 43.3951 21.6064 42.293 21.6064ZM81.6926 18.8151H85.8258L72.5997 51.3282C72.2897 52.0863 71.9453 52.7411 71.5664 53.2924C71.1876 53.8782 70.7398 54.3435 70.2232 54.688C69.7065 55.0671 69.0865 55.3427 68.3632 55.5151C67.6399 55.7218 66.7789 55.8252 65.78 55.8252H61.8535V52.3103H68.0532L71.0498 44.9703L60.3036 18.8151H64.5401L69.0349 29.9802L73.013 40.1114H73.2197L77.1978 29.9802L81.6926 18.8151ZM93.452 18.8151H97.5851V23.1571H97.7918C99.5139 19.8489 102.252 18.1949 106.006 18.1949C109.278 18.1949 111.828 19.4182 113.652 21.8649C115.512 24.3116 116.442 27.7403 116.442 32.1512C116.442 36.5621 115.512 39.9908 113.652 42.4375C111.828 44.8842 109.278 46.1075 106.006 46.1075C102.252 46.1075 99.5139 44.4534 97.7918 41.1452H97.5851V55.8252H93.452V18.8151ZM104.404 42.4375C106.816 42.4375 108.676 41.7138 109.984 40.2665C111.327 38.7848 111.999 36.8377 111.999 34.4255V29.8768C111.999 27.4646 111.327 25.5348 109.984 24.0875C108.676 22.6058 106.816 21.8649 104.404 21.8649C103.474 21.8649 102.596 21.9855 101.77 22.2267C100.943 22.4679 100.22 22.8297 99.5996 23.3122C98.9796 23.7601 98.4807 24.3287 98.1018 25.018C97.7574 25.6727 97.5851 26.448 97.5851 27.344V36.9583C97.5851 37.8543 97.7574 38.6469 98.1018 39.3361C98.4807 39.9908 98.9796 40.5594 99.5996 41.0419C100.22 41.4898 100.943 41.8345 101.77 42.0757C102.596 42.3168 103.474 42.4375 104.404 42.4375ZM145.096 45.4872C143.477 45.4872 142.324 45.0737 141.635 44.2466C140.946 43.4196 140.516 42.3858 140.343 41.1452H140.085C139.499 42.6959 138.552 43.9192 137.243 44.8152C135.969 45.6767 134.247 46.1075 132.077 46.1075C129.287 46.1075 127.065 45.3838 125.412 43.9365C123.759 42.4892 122.932 40.5077 122.932 37.9921C122.932 35.511 123.828 33.5985 125.619 32.2546C127.445 30.9106 130.372 30.2386 134.402 30.2386H140.085V27.6025C140.085 25.6382 139.534 24.1736 138.432 23.2088C137.329 22.2094 135.763 21.7098 133.73 21.7098C131.939 21.7098 130.475 22.0716 129.339 22.7953C128.202 23.4845 127.29 24.4321 126.6 25.6382L123.811 23.5706C124.155 22.8814 124.62 22.2094 125.206 21.5547C125.791 20.9 126.515 20.3314 127.375 19.8489C128.236 19.332 129.218 18.9358 130.32 18.6601C131.423 18.3499 132.645 18.1949 133.988 18.1949C137.122 18.1949 139.602 18.9875 141.428 20.5726C143.288 22.1577 144.218 24.3632 144.218 27.1889V41.8689H147.938V45.4872H145.096ZM132.8 42.6442C133.868 42.6442 134.833 42.5236 135.693 42.2824C136.589 42.0067 137.364 41.6621 138.018 41.2486C138.672 40.8007 139.172 40.2838 139.517 39.6979C139.896 39.0776 140.085 38.4229 140.085 37.7337V33.34H134.402C131.922 33.34 130.114 33.6846 128.977 34.3738C127.84 35.0631 127.272 36.0624 127.272 37.3719V38.4574C127.272 39.8357 127.755 40.8868 128.719 41.6104C129.718 42.2997 131.078 42.6442 132.8 42.6442ZM166.31 46.1075C163.52 46.1075 161.109 45.6423 159.077 44.7118C157.079 43.747 155.374 42.4719 153.962 40.8868L156.752 38.4574C158.027 39.8013 159.422 40.8351 160.937 41.5588C162.452 42.2824 164.278 42.6442 166.413 42.6442C168.48 42.6442 170.168 42.2824 171.476 41.5588C172.819 40.8007 173.491 39.629 173.491 38.0438C173.491 37.3546 173.354 36.786 173.078 36.3381C172.837 35.8556 172.493 35.4766 172.044 35.2009C171.597 34.9252 171.098 34.7184 170.546 34.5806C169.995 34.4083 169.41 34.2705 168.79 34.1671L164.605 33.5468C163.675 33.409 162.659 33.2194 161.557 32.9782C160.489 32.737 159.508 32.3579 158.612 31.841C157.717 31.2897 156.958 30.566 156.338 29.6701C155.754 28.7741 155.46 27.6024 155.46 26.1551C155.46 24.8112 155.718 23.6567 156.235 22.6919C156.787 21.6925 157.544 20.8655 158.508 20.2108C159.473 19.5215 160.61 19.0219 161.918 18.7118C163.227 18.3672 164.656 18.1949 166.206 18.1949C168.618 18.1949 170.701 18.574 172.458 19.332C174.249 20.0901 175.782 21.1412 177.056 22.4851L174.369 25.018C174.059 24.6389 173.664 24.2599 173.181 23.8808C172.734 23.4672 172.165 23.1054 171.476 22.7953C170.822 22.4507 170.047 22.175 169.151 21.9682C168.256 21.7615 167.223 21.6581 166.051 21.6581C163.951 21.6581 162.332 22.0199 161.195 22.7436C160.093 23.4672 159.542 24.5183 159.542 25.8967C159.542 26.5859 159.663 27.1717 159.903 27.6541C160.179 28.1021 160.541 28.4639 160.988 28.7396C161.437 29.0153 161.936 29.2393 162.487 29.4116C163.072 29.5494 163.658 29.67 164.243 29.7734L168.428 30.3937C169.393 30.5315 170.409 30.7211 171.476 30.9623C172.545 31.2035 173.526 31.5998 174.421 32.1512C175.317 32.6681 176.058 33.3745 176.643 34.2705C177.263 35.1665 177.573 36.3381 177.573 37.7854C177.573 40.4388 176.539 42.4892 174.473 43.9365C172.441 45.3838 169.72 46.1075 166.31 46.1075ZM197.289 46.1075C194.499 46.1075 192.087 45.6423 190.056 44.7118C188.057 43.747 186.352 42.4719 184.941 40.8868L187.731 38.4574C189.005 39.8013 190.4 40.8351 191.916 41.5588C193.43 42.2824 195.256 42.6442 197.392 42.6442C199.459 42.6442 201.146 42.2824 202.455 41.5588C203.798 40.8007 204.47 39.629 204.47 38.0438C204.47 37.3546 204.332 36.786 204.057 36.3381C203.815 35.8556 203.471 35.4766 203.023 35.2009C202.575 34.9252 202.076 34.7184 201.525 34.5806C200.973 34.4083 200.389 34.2705 199.769 34.1671L195.584 33.5468C194.654 33.409 193.637 33.2194 192.536 32.9782C191.467 32.737 190.486 32.3579 189.591 31.841C188.695 31.2897 187.937 30.566 187.317 29.6701C186.732 28.7741 186.439 27.6024 186.439 26.1551C186.439 24.8112 186.697 23.6567 187.214 22.6919C187.765 21.6925 188.522 20.8655 189.487 20.2108C190.451 19.5215 191.588 19.0219 192.897 18.7118C194.205 18.3672 195.635 18.1949 197.185 18.1949C199.596 18.1949 201.68 18.574 203.437 19.332C205.227 20.0901 206.76 21.1412 208.035 22.4851L205.348 25.018C205.038 24.6389 204.642 24.2599 204.16 23.8808C203.712 23.4672 203.143 23.1054 202.455 22.7953C201.8 22.4507 201.025 22.175 200.13 21.9682C199.234 21.7615 198.201 21.6581 197.03 21.6581C194.929 21.6581 193.311 22.0199 192.174 22.7436C191.071 23.4672 190.521 24.5183 190.521 25.8967C190.521 26.5859 190.641 27.1717 190.882 27.6541C191.157 28.1021 191.519 28.4639 191.967 28.7396C192.415 29.0153 192.914 29.2393 193.466 29.4116C194.05 29.5494 194.636 29.67 195.222 29.7734L199.407 30.3937C200.371 30.5315 201.387 30.7211 202.455 30.9623C203.523 31.2035 204.504 31.5998 205.4 32.1512C206.295 32.6681 207.036 33.3745 207.622 34.2705C208.242 35.1665 208.552 36.3381 208.552 37.7854C208.552 40.4388 207.518 42.4892 205.452 43.9365C203.419 45.3838 200.699 46.1075 197.289 46.1075Z" fill="#E5E5E5"/>
<path d="M309.935 40.68H309.676C309.366 41.3693 309.005 42.0412 308.591 42.6959C308.178 43.3507 307.644 43.9365 306.99 44.4534C306.37 44.9359 305.612 45.3321 304.716 45.6423C303.821 45.9524 302.753 46.1075 301.513 46.1075C297.587 46.1075 294.659 44.5224 292.73 41.352C290.836 38.1817 289.889 33.6329 289.889 27.7058C289.889 21.503 290.94 16.7992 293.04 13.5945C295.141 10.3897 298.379 8.7873 302.753 8.7873C304.441 8.7873 305.905 9.01132 307.145 9.45927C308.385 9.90721 309.435 10.5103 310.296 11.2684C311.192 12.0265 311.932 12.8881 312.518 13.8529C313.104 14.7833 313.585 15.731 313.964 16.6959L310.245 18.4016C309.935 17.609 309.573 16.8682 309.16 16.179C308.78 15.4553 308.299 14.835 307.713 14.3181C307.162 13.7668 306.491 13.336 305.698 13.0259C304.906 12.7157 303.976 12.5607 302.908 12.5607C300.015 12.5607 297.879 13.6462 296.502 15.8171C295.159 17.9881 294.487 20.8828 294.487 24.5011V30.0836C294.487 31.91 294.624 33.5812 294.9 35.0975C295.176 36.5793 295.624 37.8715 296.244 38.9743C296.898 40.077 297.724 40.9385 298.723 41.5588C299.757 42.1446 301.014 42.4375 302.495 42.4375C304.837 42.4375 306.662 41.7311 307.971 40.3182C309.281 38.9053 309.935 37.079 309.935 34.8391V31.1174H302.34V27.6542H313.964V45.4872H309.935V40.68ZM339.776 41.1452H339.569C339.294 41.8 338.949 42.4375 338.536 43.0578C338.123 43.6436 337.606 44.1605 336.986 44.6085C336.401 45.0564 335.694 45.4183 334.868 45.694C334.041 45.9697 333.077 46.1075 331.975 46.1075C329.185 46.1075 326.947 45.2288 325.258 43.4713C323.571 41.6794 322.727 39.1638 322.727 35.9246V18.8152H326.86V35.2009C326.86 37.6476 327.394 39.4739 328.461 40.68C329.53 41.8516 331.096 42.4375 333.163 42.4375C333.99 42.4375 334.8 42.3341 335.591 42.1274C336.384 41.9206 337.089 41.6105 337.709 41.1969C338.329 40.7834 338.829 40.2665 339.208 39.6462C339.587 38.9915 339.776 38.2162 339.776 37.3202V18.8152H343.909V45.4872H339.776V41.1452ZM374.526 45.4872C372.907 45.4872 371.754 45.0737 371.065 44.2466C370.376 43.4196 369.946 42.3858 369.773 41.1452H369.515C368.929 42.6959 367.983 43.9192 366.673 44.8152C365.399 45.6767 363.677 46.1075 361.507 46.1075C358.717 46.1075 356.496 45.3838 354.842 43.9365C353.189 42.4892 352.362 40.5077 352.362 37.9922C352.362 35.511 353.258 33.5985 355.049 32.2546C356.875 30.9106 359.802 30.2387 363.832 30.2387H369.515V27.6025C369.515 25.6382 368.964 24.1737 367.862 23.2088C366.759 22.2094 365.193 21.7098 363.16 21.7098C361.37 21.7098 359.905 22.0716 358.769 22.7953C357.632 23.4845 356.72 24.4321 356.031 25.6382L353.241 23.5706C353.585 22.8814 354.05 22.2094 354.636 21.5547C355.222 20.9 355.945 20.3314 356.806 19.849C357.666 19.3321 358.648 18.9358 359.75 18.6601C360.853 18.3499 362.075 18.1949 363.419 18.1949C366.553 18.1949 369.032 18.9875 370.858 20.5726C372.718 22.1577 373.648 24.3633 373.648 27.1889V41.8689H377.368V45.4872H374.526ZM362.23 42.6443C363.298 42.6443 364.263 42.5236 365.123 42.2824C366.019 42.0067 366.794 41.6621 367.448 41.2486C368.102 40.8007 368.603 40.2838 368.947 39.6979C369.326 39.0776 369.515 38.4229 369.515 37.7337V33.3401H363.832C361.352 33.3401 359.544 33.6846 358.407 34.3739C357.271 35.0631 356.702 36.0624 356.702 37.3719V38.4574C356.702 39.8357 357.185 40.8868 358.149 41.6105C359.148 42.2997 360.508 42.6443 362.23 42.6443ZM383.909 41.9723H391.71V22.3301H383.909V18.8152H395.843V25.5349H396.101C396.653 23.4328 397.687 21.7959 399.201 20.6243C400.751 19.4182 402.714 18.8152 405.091 18.8152H408.811V22.9504H403.799C401.423 22.9504 399.495 23.6396 398.013 25.018C396.566 26.3963 395.843 28.2055 395.843 30.4454V41.9723H406.176V45.4872H383.909V41.9723ZM432.867 41.1452H432.66C430.938 44.4534 428.2 46.1075 424.446 46.1075C421.173 46.1075 418.607 44.8842 416.748 42.4375C414.922 39.9908 414.009 36.5621 414.009 32.1512C414.009 27.7403 414.922 24.3116 416.748 21.8649C418.607 19.4182 421.173 18.1949 424.446 18.1949C428.2 18.1949 430.938 19.849 432.66 23.1571H432.867V7.2366H437V45.4872H432.867V41.1452ZM426.047 42.4375C426.977 42.4375 427.855 42.3169 428.682 42.0757C429.509 41.8345 430.232 41.4898 430.852 41.0419C431.472 40.5594 431.954 39.9908 432.299 39.3361C432.678 38.6469 432.867 37.8544 432.867 36.9584V27.344C432.867 26.448 432.678 25.6727 432.299 25.018C431.954 24.3287 431.472 23.7601 430.852 23.3122C430.232 22.8297 429.509 22.4679 428.682 22.2267C427.855 21.9855 426.977 21.8649 426.047 21.8649C423.637 21.8649 421.759 22.6058 420.416 24.0875C419.107 25.5349 418.452 27.4647 418.452 29.8768V34.4255C418.452 36.8377 419.107 38.7848 420.416 40.2665C421.759 41.7138 423.637 42.4375 426.047 42.4375Z" fill="#4A7C59"/>
<path d="M229.132 26.1009C229.132 25.0198 230.016 24.1434 231.106 24.1434H268.488C269.579 24.1434 270.463 25.0198 270.463 26.1009V50.7662C270.463 51.8474 269.579 52.7238 268.488 52.7238H231.106C230.016 52.7238 229.132 51.8474 229.132 50.7662V26.1009Z" fill="#4A7C59"/>
<path fill-rule="evenodd" clip-rule="evenodd" d="M267.304 17.3244C267.304 26.8926 259.48 34.649 249.83 34.649C240.179 34.649 232.356 26.8926 232.356 17.3244C232.356 7.7564 240.179 0 249.83 0C259.48 0 267.304 7.7564 267.304 17.3244ZM257.3 15.9868V24.1434H242.295V15.9868C242.295 11.8785 245.654 8.54808 249.797 8.54808C253.941 8.54808 257.3 11.8785 257.3 15.9868Z" fill="#4A7C59"/>
<path d="M262.828 17.0961H267.304V24.1434H262.828V17.0961Z" fill="#4A7C59"/>
<path d="M232.356 17.2918H236.832V24.3391H232.356V17.2918Z" fill="#4A7C59"/>
</svg>
